<?xml version="1.0" encoding="iso-8859-1"?>
<!-- Generator: Adobe Illustrator 18.1.1, SVG Export Plug-In . SVG Version: 6.00 Build 0)  -->
<svg version="1.1" id="Capa_1" xmlns="http://www.w3.org/2000/svg" xmlns:xlink="http://www.w3.org/1999/xlink" x="0px" y="0px"
	 viewBox="0 0 611.998 611.998" style="enable-background:new 0 0 611.998 611.998;" xml:space="preserve">
<g>
	<g>
		<path d="M598.316,113.716c0-26.534-21.587-48.123-48.123-48.123h-21.036V39.082C529.156,17.5,511.663,0,490.076,0
			c-21.582,0-39.082,17.5-39.082,39.082v26.512H345.081V39.082C345.083,17.5,327.585,0,305.997,0
			c-21.582,0-39.082,17.5-39.082,39.082v26.512h-105.91V39.082C161.006,17.5,143.508,0,121.924,0
			c-21.586,0-39.082,17.5-39.082,39.082v26.512H61.806c-26.534,0-48.123,21.587-48.123,48.123v72.604
			c0,9.05,2.514,17.522,6.876,24.761v359.671c0,22.743,18.503,41.245,41.247,41.245h488.387c22.745,0,41.248-18.502,41.248-41.245
			V211.079c4.36-7.239,6.875-15.709,6.875-24.759V113.716L598.316,113.716z M75.552,557.007V234.448h460.896v322.559L75.552,557.007
			L75.552,557.007z"/>
		<path d="M368.013,455.073h-56.059l31.241-34.789c26.59-27.786,41.833-57.955,41.833-82.806c0-23.23-8.908-42.8-25.763-56.593
			c-14.982-12.258-35.462-18.739-59.226-18.739c-27.36,0-56.049,11.983-76.726,32.039c-6.064,5.863-9.592,14.07-9.681,22.535
			c-0.078,8.448,3.294,16.727,9.253,22.711l0.244,0.241c5.986,5.929,13.912,9.191,22.35,9.191c8.28,0,16.121-3.169,22.077-8.921
			c8.723-8.419,21.775-14.077,32.483-14.077c9.728,0,16.006,2.27,18.644,4.4c0.851,0.687,2.623,2.116,2.623,7.214
			c0,3.545-4.454,18.296-24.229,38.933c-0.247,0.253-0.485,0.509-0.748,0.799l-75.961,84.401
			c-5.262,5.841-8.162,13.395-8.162,21.274v0.309c0,0.605,0.019,1.209,0.056,1.817c-0.039,0.641-0.056,1.302-0.056,1.997
			c0,17.527,14.256,31.785,31.781,31.785h124.027c17.525,0,31.783-14.258,31.783-31.934
			C399.796,469.331,385.538,455.073,368.013,455.073z"/>
	</g>
</g>
<g>
</g>
<g>
</g>
<g>
</g>
<g>
</g>
<g>
</g>
<g>
</g>
<g>
</g>
<g>
</g>
<g>
</g>
<g>
</g>
<g>
</g>
<g>
</g>
<g>
</g>
<g>
</g>
<g>
</g>
</svg>
