<?xml version="1.0" encoding="UTF-8" ?>
<!DOCTYPE svg PUBLIC "-//W3C//DTD SVG 1.1//EN" "http://www.w3.org/Graphics/SVG/1.1/DTD/svg11.dtd">
<svg width="405pt" height="139pt" viewBox="0 0 5672 1944" version="1.1" xmlns="http://www.w3.org/2000/svg">
<g id="#ffffffff">
</g>
<g id="#3174f1ff">
<path fill="#3174f1" opacity="1.00" d=" M 490.98 88.03 C 573.12 52.98 661.80 33.46 751.03 30.44 C 839.76 27.27 929.09 40.22 1013.13 68.94 C 1097.89 97.79 1177.16 142.63 1245.63 200.32 C 1252.32 205.77 1258.67 211.61 1265.22 217.23 C 1218.94 265.21 1172.20 312.76 1125.77 360.60 C 1093.30 331.22 1057.07 306.00 1018.30 285.64 C 941.04 244.99 853.27 224.80 766.03 227.01 C 678.49 228.93 591.52 253.52 516.14 298.12 C 448.27 338.06 389.68 393.64 346.33 459.39 C 301.73 526.74 273.30 604.74 264.33 685.03 C 254.01 775.09 267.57 867.88 304.10 950.91 C 339.11 1031.21 395.05 1102.21 464.74 1155.26 C 498.03 1180.38 534.10 1201.93 572.41 1218.48 C 663.45 1258.18 766.05 1270.44 863.96 1254.06 C 867.73 1253.56 871.48 1252.86 875.00 1251.37 C 913.39 1244.63 950.84 1232.87 986.62 1217.47 C 1003.45 1210.18 1019.88 1201.94 1035.69 1192.64 C 1066.66 1175.12 1095.70 1154.05 1121.22 1129.23 C 1150.84 1100.97 1175.61 1067.64 1194.30 1031.22 C 1219.48 982.36 1233.08 928.08 1237.38 873.43 C 1151.24 873.21 1065.10 873.17 978.96 872.60 C 910.72 872.47 842.48 871.77 774.24 871.60 C 774.23 807.60 774.24 743.60 774.23 679.61 C 993.10 679.60 1211.96 679.59 1430.82 679.61 C 1438.41 731.02 1440.38 783.18 1437.93 835.06 C 1433.70 919.89 1416.39 1004.52 1382.69 1082.67 C 1352.80 1152.29 1309.54 1216.25 1255.21 1269.14 C 1202.81 1320.50 1140.71 1361.43 1074.28 1392.32 C 1055.40 1401.19 1036.10 1409.13 1016.62 1416.57 C 1006.83 1420.23 997.25 1424.53 987.12 1427.20 C 894.40 1455.06 796.13 1463.90 699.88 1453.84 C 616.40 1445.12 534.42 1421.89 458.91 1385.19 C 393.88 1353.73 333.65 1312.40 280.81 1263.14 C 221.91 1208.25 172.25 1143.44 134.83 1072.14 C 101.87 1009.42 78.39 941.72 65.66 872.01 C 48.34 777.56 50.38 679.57 71.80 585.96 C 94.73 485.37 140.30 390.09 203.80 308.82 C 278.73 212.44 378.64 135.76 490.98 88.03 Z" />
<path fill="#3174f1" opacity="1.00" d=" M 3796.34 562.40 C 3836.71 545.36 3880.09 535.09 3923.96 533.79 C 3967.57 532.49 4011.31 540.31 4052.07 555.80 C 4102.15 574.66 4147.53 604.37 4188.12 638.97 C 4188.82 614.83 4189.39 590.67 4191.43 566.60 C 4248.97 566.61 4306.51 566.60 4364.06 566.60 C 4369.21 566.56 4374.38 566.73 4379.56 566.45 C 4379.90 619.62 4379.61 672.81 4379.70 725.98 C 4379.70 946.32 4379.70 1166.65 4379.70 1386.98 C 4379.50 1407.93 4380.11 1428.89 4379.39 1449.84 C 4377.10 1494.89 4368.58 1539.59 4354.50 1582.43 C 4342.91 1617.22 4327.45 1650.78 4307.67 1681.68 C 4270.40 1740.35 4217.14 1788.60 4155.27 1820.21 C 4144.52 1825.43 4134.00 1831.50 4122.32 1834.38 C 4076.97 1847.86 4030.26 1857.08 3983.04 1860.44 C 3931.53 1864.22 3879.30 1861.19 3829.04 1849.00 C 3788.42 1839.22 3749.24 1823.29 3713.65 1801.37 C 3683.69 1782.95 3656.31 1760.39 3632.20 1734.80 C 3594.57 1694.86 3564.94 1647.93 3541.88 1598.28 C 3599.58 1573.14 3657.35 1548.18 3715.00 1522.93 C 3729.59 1553.96 3748.58 1582.98 3771.36 1608.63 C 3795.83 1636.07 3825.56 1659.51 3859.90 1673.25 C 3883.66 1682.66 3909.36 1687.13 3934.91 1686.07 C 3940.63 1685.99 3946.32 1685.11 3952.07 1684.86 C 3993.95 1684.63 4036.08 1675.05 4073.07 1655.16 C 4102.45 1639.28 4128.05 1616.38 4146.72 1588.66 C 4169.53 1555.18 4182.50 1515.87 4188.80 1476.08 C 4195.45 1434.37 4195.13 1391.84 4191.46 1349.85 C 4176.83 1361.51 4162.53 1373.63 4147.03 1384.14 C 4116.52 1405.43 4083.20 1422.80 4047.94 1434.78 C 4001.89 1450.42 3952.50 1456.18 3904.10 1451.35 C 3864.03 1447.53 3824.79 1436.87 3787.71 1421.35 C 3751.69 1406.22 3717.44 1386.97 3685.39 1364.65 C 3668.11 1353.34 3653.84 1338.17 3639.57 1323.40 C 3614.38 1296.41 3591.87 1266.92 3572.31 1235.61 C 3532.44 1171.88 3505.28 1099.25 3499.82 1023.93 C 3496.37 978.29 3501.02 932.12 3513.03 887.97 C 3527.39 834.94 3551.97 785.04 3582.64 739.59 C 3594.69 721.59 3607.55 704.08 3622.15 688.04 C 3644.77 662.94 3670.13 640.42 3697.01 619.99 C 3727.70 596.99 3760.93 577.23 3796.34 562.40 M 3940.56 717.84 C 3903.21 720.74 3866.72 733.09 3835.10 753.15 C 3802.05 773.86 3774.34 802.59 3753.44 835.43 C 3732.84 868.11 3718.78 904.87 3712.21 942.93 C 3704.94 984.88 3706.16 1028.35 3716.23 1069.74 C 3725.09 1106.90 3741.29 1142.31 3763.77 1173.20 C 3785.79 1203.45 3814.17 1229.19 3846.91 1247.40 C 3885.08 1268.63 3929.39 1278.87 3973.02 1275.80 C 4012.77 1273.25 4051.69 1259.82 4084.84 1237.79 C 4115.77 1217.45 4142.02 1190.20 4161.86 1158.98 C 4205.74 1090.77 4218.68 1004.48 4200.24 925.83 C 4191.40 888.05 4175.19 851.93 4152.36 820.53 C 4130.69 790.79 4102.99 765.24 4070.85 747.19 C 4031.59 724.80 3985.64 714.32 3940.56 717.84 Z" />
</g>
<g id="#249a41ff">
<path fill="#249a41" opacity="1.00" d=" M 4517.17 77.01 C 4584.32 77.01 4651.47 76.96 4718.61 77.03 C 4718.57 526.35 4718.58 975.66 4718.61 1424.97 C 4651.46 1425.03 4584.32 1424.99 4517.17 1424.99 C 4517.18 975.66 4517.18 526.34 4517.17 77.01 Z" />
</g>
<g id="#e63125ff">
<path fill="#e63125" opacity="1.00" d=" M 1931.40 534.64 C 2013.10 529.11 2096.25 545.71 2169.38 582.62 C 2228.40 612.06 2280.82 654.52 2322.20 705.86 C 2355.14 746.66 2381.09 793.11 2398.44 842.60 C 2434.30 944.13 2433.05 1058.26 2394.83 1158.94 C 2367.18 1232.48 2320.24 1298.60 2260.16 1349.20 C 2225.54 1378.25 2186.83 1402.48 2145.28 1420.31 C 2095.00 1442.11 2040.72 1454.56 1986.02 1457.41 C 1919.68 1460.87 1852.64 1449.78 1790.93 1425.21 C 1720.81 1397.18 1657.76 1351.70 1609.08 1293.97 C 1560.99 1237.21 1526.91 1168.65 1510.95 1095.98 C 1491.57 1008.63 1498.09 915.66 1529.93 832.01 C 1557.45 759.17 1603.88 693.64 1663.29 643.33 C 1724.18 591.57 1798.70 555.92 1877.33 541.52 C 1895.18 538.08 1913.25 535.81 1931.40 534.64 M 1946.42 719.66 C 1907.37 722.16 1869.11 734.50 1835.62 754.66 C 1803.64 773.83 1776.00 800.03 1754.57 830.50 C 1733.88 859.96 1718.90 893.39 1710.54 928.40 C 1700.33 971.14 1699.74 1016.15 1708.78 1059.15 C 1716.93 1097.84 1733.04 1134.89 1756.12 1167.02 C 1777.29 1196.50 1804.26 1221.93 1835.43 1240.61 C 1863.36 1257.44 1894.58 1268.84 1926.85 1273.65 C 1968.15 1279.77 2011.03 1275.32 2050.07 1260.44 C 2075.60 1250.79 2099.52 1236.94 2120.68 1219.73 C 2161.43 1186.67 2192.05 1141.57 2208.66 1091.85 C 2232.18 1021.99 2228.49 943.25 2197.87 876.12 C 2172.32 819.63 2127.57 771.51 2071.64 744.29 C 2033.04 725.20 1989.36 716.67 1946.42 719.66 Z" />
<path fill="#e63125" opacity="1.00" d=" M 5178.97 544.34 C 5220.75 538.69 5263.46 538.08 5305.11 545.18 C 5371.83 555.06 5435.23 584.80 5486.34 628.68 C 5529.54 665.20 5564.11 710.98 5591.85 760.05 C 5613.21 797.96 5630.52 838.05 5644.93 879.07 C 5599.34 898.46 5553.74 917.83 5508.14 937.22 C 5453.63 960.46 5398.94 983.28 5344.34 1006.29 C 5241.90 1049.46 5139.28 1092.18 5036.76 1135.15 C 5048.62 1162.64 5065.81 1187.86 5086.92 1209.08 C 5108.47 1231.43 5134.93 1249.01 5163.88 1260.24 C 5196.27 1272.65 5231.47 1276.73 5265.96 1274.05 C 5301.65 1271.59 5337.18 1263.63 5369.84 1248.83 C 5396.23 1236.96 5420.65 1220.66 5441.53 1200.60 C 5457.79 1184.63 5472.53 1166.76 5483.01 1146.42 C 5533.71 1180.22 5584.42 1214.00 5635.10 1247.85 C 5609.24 1286.50 5577.68 1321.31 5541.49 1350.52 C 5500.45 1383.68 5453.58 1409.63 5403.63 1426.65 C 5338.37 1448.68 5267.99 1455.82 5199.71 1446.48 C 5132.02 1437.82 5066.61 1412.95 5009.88 1375.10 C 4952.52 1336.81 4903.97 1285.38 4869.14 1225.85 C 4828.83 1157.45 4807.06 1078.38 4806.17 999.02 C 4804.92 915.60 4826.79 831.95 4869.14 760.04 C 4905.71 697.63 4957.30 644.08 5018.39 605.33 C 5051.09 584.65 5086.37 568.02 5123.29 556.38 C 5141.36 550.41 5160.16 547.07 5178.97 544.34 M 5163.74 730.81 C 5147.56 736.22 5131.54 742.34 5116.55 750.53 C 5102.65 758.12 5089.72 767.45 5078.08 778.17 C 5052.09 802.14 5033.31 833.17 5021.26 866.24 C 5007.70 903.77 5001.35 943.88 5002.12 983.75 C 5139.59 926.16 5277.03 868.52 5414.48 810.90 C 5402.70 789.56 5386.21 770.97 5367.17 755.84 C 5342.89 736.45 5313.51 723.61 5282.86 718.68 C 5242.92 712.07 5201.92 718.37 5163.74 730.81 Z" />
</g>
<g id="#f6ad01ff">
<path fill="#f6ad01" opacity="1.00" d=" M 2934.31 534.45 C 3021.97 529.06 3111.07 549.33 3187.62 592.43 C 3255.30 630.10 3313.03 685.31 3354.07 750.98 C 3398.85 822.19 3423.34 905.92 3424.15 990.04 C 3425.39 1073.47 3403.44 1157.13 3361.09 1229.05 C 3323.55 1293.45 3270.01 1348.29 3206.89 1387.87 C 3175.54 1407.38 3141.93 1423.29 3106.86 1434.85 C 3060.17 1450.04 3011.12 1458.13 2962.00 1458.00 C 2912.85 1458.13 2863.77 1450.03 2817.06 1434.83 C 2743.67 1410.64 2676.66 1367.56 2623.98 1311.04 C 2572.21 1255.68 2534.35 1187.39 2515.06 1114.06 C 2490.98 1022.97 2495.45 924.51 2528.13 836.11 C 2553.08 768.23 2594.33 706.46 2647.33 657.28 C 2702.04 606.27 2769.37 568.93 2841.61 549.54 C 2871.90 541.45 2902.99 536.24 2934.31 534.45 M 2943.60 719.86 C 2895.42 723.44 2848.70 742.06 2810.57 771.60 C 2754.08 814.88 2716.59 881.03 2705.80 951.14 C 2698.36 998.52 2702.34 1047.75 2717.89 1093.17 C 2741.00 1161.57 2791.25 1221.24 2856.85 1252.24 C 2899.24 1272.60 2947.55 1280.41 2994.18 1274.29 C 3034.72 1269.28 3073.73 1253.56 3106.99 1229.94 C 3136.66 1208.94 3161.70 1181.63 3180.83 1150.77 C 3200.14 1119.39 3213.28 1084.24 3219.45 1047.93 C 3227.31 1001.66 3224.23 953.51 3210.10 908.73 C 3199.41 874.73 3182.29 842.76 3159.86 815.05 C 3135.88 785.65 3105.79 761.10 3071.67 744.42 C 3032.23 724.88 2987.47 716.31 2943.60 719.86 Z" />
</g>
<g id="#0e6dceff">
<path fill="#0e6dce" opacity="1.00" d=" M 2910.00 1597.00 C 2929.66 1597.00 2949.33 1597.00 2969.00 1597.00 C 2968.93 1646.47 2969.14 1695.95 2968.89 1745.42 C 2966.29 1750.70 2969.68 1757.28 2967.11 1762.59 C 2966.81 1767.52 2967.16 1772.47 2966.89 1777.42 C 2965.49 1779.11 2966.04 1781.35 2965.96 1783.38 C 2967.27 1782.21 2968.56 1780.98 2969.72 1779.63 C 2970.56 1777.62 2972.26 1776.20 2973.69 1774.62 C 2974.77 1772.79 2976.19 1771.20 2977.31 1769.39 C 2978.40 1768.10 2979.55 1766.87 2980.69 1765.61 C 2981.76 1763.78 2983.19 1762.19 2984.31 1760.38 C 2985.71 1758.78 2987.37 1757.34 2988.28 1755.37 C 2989.71 1753.78 2991.39 1752.35 2992.29 1750.36 C 2995.06 1746.83 2999.14 1744.37 3001.29 1740.36 C 3004.92 1736.28 3009.07 1732.70 3012.71 1728.63 C 3015.79 1723.57 3020.97 1720.20 3024.71 1715.64 C 3027.87 1710.07 3034.12 1706.93 3037.29 1701.37 C 3041.02 1696.79 3046.19 1693.42 3049.29 1688.37 C 3050.91 1686.50 3052.69 1684.77 3054.44 1683.00 C 3076.74 1682.99 3099.05 1683.02 3121.36 1682.98 C 3119.93 1684.36 3118.55 1685.82 3117.71 1687.63 C 3114.30 1691.86 3109.46 1694.91 3106.71 1699.64 C 3103.39 1703.36 3099.59 1706.63 3096.29 1710.36 C 3093.12 1715.93 3086.87 1719.06 3083.71 1724.64 C 3080.29 1728.86 3075.46 1731.92 3072.71 1736.64 C 3069.28 1740.85 3064.47 1743.92 3061.71 1748.64 C 3058.29 1752.86 3053.46 1755.91 3050.71 1760.63 C 3047.30 1764.86 3042.45 1767.91 3039.72 1772.64 C 3038.28 1774.98 3033.24 1776.88 3035.91 1780.05 C 3036.67 1781.24 3037.72 1782.26 3038.67 1783.40 C 3039.46 1784.84 3040.53 1786.13 3041.65 1787.42 C 3042.48 1788.83 3043.52 1790.14 3044.64 1791.42 C 3045.80 1793.17 3047.16 1794.80 3048.35 1796.58 C 3049.42 1797.83 3050.48 1799.13 3051.34 1800.60 C 3051.67 1801.05 3052.32 1801.95 3052.65 1802.40 C 3053.77 1804.18 3055.18 1805.78 3056.33 1807.60 C 3057.06 1808.51 3057.86 1809.44 3058.67 1810.40 C 3059.76 1812.19 3061.19 1813.78 3062.33 1815.60 C 3063.06 1816.51 3063.86 1817.44 3064.68 1818.39 C 3065.46 1819.85 3066.52 1821.14 3067.65 1822.42 C 3068.48 1823.84 3069.52 1825.14 3070.64 1826.42 C 3071.80 1828.17 3073.18 1829.79 3074.33 1831.60 C 3075.07 1832.51 3075.85 1833.44 3076.67 1834.40 C 3077.77 1836.19 3079.18 1837.79 3080.33 1839.60 C 3081.07 1840.51 3081.85 1841.44 3082.67 1842.40 C 3083.78 1844.18 3085.16 1845.80 3086.35 1847.59 C 3087.42 1848.83 3088.48 1850.13 3089.34 1851.61 C 3089.67 1852.05 3090.33 1852.95 3090.66 1853.40 C 3091.46 1854.84 3092.52 1856.14 3093.65 1857.42 C 3094.48 1858.83 3095.52 1860.14 3096.64 1861.42 C 3097.79 1863.17 3099.17 1864.79 3100.33 1866.60 C 3101.07 1867.51 3101.85 1868.44 3102.67 1869.40 C 3103.78 1871.18 3105.16 1872.80 3106.36 1874.58 C 3107.42 1875.82 3108.47 1877.13 3109.35 1878.59 C 3110.42 1879.82 3111.49 1881.12 3112.32 1882.60 C 3113.06 1883.51 3113.86 1884.44 3114.68 1885.39 C 3115.76 1887.19 3117.19 1888.78 3118.33 1890.60 C 3119.06 1891.51 3119.86 1892.44 3120.67 1893.40 C 3121.74 1895.19 3123.19 1896.74 3124.30 1898.56 C 3124.93 1899.37 3125.61 1900.19 3126.33 1901.03 C 3103.59 1900.92 3080.85 1901.09 3058.13 1900.95 C 3056.57 1901.03 3056.20 1899.41 3055.70 1898.39 C 3054.53 1897.15 3053.44 1895.86 3052.67 1894.39 C 3052.33 1893.95 3051.66 1893.05 3051.32 1892.61 C 3050.66 1891.55 3049.99 1890.52 3049.39 1889.53 C 3048.15 1887.78 3046.76 1886.18 3045.65 1884.40 C 3045.33 1883.95 3044.68 1883.05 3044.35 1882.60 C 3043.18 1880.79 3041.77 1879.19 3040.65 1877.40 C 3040.33 1876.95 3039.68 1876.05 3039.35 1875.60 C 3038.17 1873.80 3036.77 1872.18 3035.65 1870.40 C 3035.32 1869.95 3034.67 1869.05 3034.35 1868.60 C 3033.17 1866.79 3031.78 1865.18 3030.65 1863.40 C 3030.32 1862.95 3029.67 1862.05 3029.35 1861.60 C 3028.18 1859.79 3026.78 1858.18 3025.65 1856.40 C 3025.33 1855.95 3024.68 1855.05 3024.35 1854.59 C 3023.19 1852.78 3021.77 1851.18 3020.65 1849.40 C 3020.33 1848.95 3019.67 1848.05 3019.35 1847.60 C 3018.18 1845.79 3016.77 1844.19 3015.65 1842.40 C 3015.32 1841.95 3014.66 1841.05 3014.32 1840.61 C 3013.66 1839.55 3012.99 1838.52 3012.39 1837.52 C 3011.15 1835.78 3009.76 1834.18 3008.65 1832.40 C 3008.33 1831.95 3007.68 1831.05 3007.35 1830.60 C 3006.18 1828.79 3004.77 1827.19 3003.66 1825.40 C 3003.33 1824.95 3002.68 1824.05 3002.35 1823.60 C 3001.20 1821.79 2999.81 1820.19 2998.61 1818.47 C 2997.91 1817.43 2997.29 1816.42 2996.71 1815.40 C 2995.93 1814.52 2995.20 1813.67 2994.51 1812.83 C 2993.26 1814.18 2992.00 1815.51 2990.65 1816.73 C 2988.61 1817.56 2987.18 1819.27 2985.63 1820.72 C 2983.14 1821.69 2981.82 1824.30 2979.36 1825.28 C 2977.74 1826.72 2976.23 1828.26 2974.63 1829.71 C 2972.35 1830.77 2970.71 1832.70 2969.00 1834.45 C 2968.99 1856.63 2969.00 1878.81 2969.00 1901.00 C 2949.33 1901.00 2929.66 1901.00 2910.00 1901.00 C 2910.00 1799.67 2910.00 1698.33 2910.00 1597.00 Z" />
<path fill="#0e6dce" opacity="1.00" d=" M 2149.00 1615.00 C 2176.98 1614.98 2204.96 1615.04 2232.94 1614.97 C 2234.81 1615.04 2236.96 1614.56 2238.58 1615.89 C 2247.18 1616.21 2255.80 1615.79 2264.42 1616.11 C 2267.72 1618.40 2272.24 1615.59 2275.58 1617.88 C 2277.50 1617.97 2279.45 1618.00 2281.42 1618.12 C 2283.14 1619.43 2285.37 1618.88 2287.41 1619.14 C 2289.52 1620.74 2292.41 1619.26 2294.58 1620.82 C 2295.49 1620.92 2296.44 1621.04 2297.43 1621.19 C 2299.05 1621.87 2300.81 1622.17 2302.55 1622.67 C 2303.52 1622.98 2304.52 1623.32 2305.54 1623.69 C 2306.52 1623.98 2307.52 1624.32 2308.54 1624.68 C 2309.52 1624.99 2310.52 1625.32 2311.55 1625.68 C 2312.48 1625.96 2313.43 1626.30 2314.39 1626.69 C 2315.66 1627.39 2317.05 1627.95 2318.56 1628.18 C 2320.25 1629.12 2321.81 1630.31 2323.57 1631.25 C 2325.29 1632.15 2326.89 1633.33 2328.65 1634.26 C 2330.22 1635.72 2331.73 1637.26 2333.37 1638.71 C 2336.63 1640.54 2339.28 1643.45 2341.36 1646.55 C 2341.99 1647.52 2342.68 1648.52 2343.36 1649.54 C 2343.99 1650.51 2344.68 1651.52 2345.34 1652.55 C 2345.99 1653.50 2346.70 1654.49 2347.40 1655.49 C 2347.68 1656.46 2347.98 1657.45 2348.30 1658.46 C 2348.62 1659.44 2348.96 1660.44 2349.32 1661.46 C 2349.64 1662.43 2349.97 1663.43 2350.31 1664.46 C 2350.63 1665.43 2350.98 1666.43 2351.35 1667.45 C 2351.79 1668.71 2352.00 1670.06 2352.27 1671.43 C 2353.72 1674.53 2352.66 1678.09 2353.10 1681.42 C 2354.71 1683.61 2353.76 1686.47 2354.01 1689.01 C 2353.70 1691.84 2354.78 1695.04 2353.12 1697.58 C 2352.99 1699.51 2352.96 1701.45 2352.88 1703.41 C 2351.59 1705.23 2352.27 1707.62 2351.27 1709.58 C 2350.99 1710.84 2350.88 1712.19 2350.32 1713.41 C 2349.46 1715.06 2348.89 1716.83 2348.15 1718.54 C 2348.08 1719.02 2347.95 1719.99 2347.89 1720.47 C 2347.05 1721.40 2346.31 1722.42 2345.71 1723.51 C 2344.84 1725.30 2343.66 1726.90 2342.70 1728.63 C 2342.35 1729.07 2341.67 1729.94 2341.33 1730.38 C 2339.18 1734.09 2335.62 1736.70 2332.63 1739.70 C 2330.10 1741.05 2328.25 1743.42 2325.43 1744.22 C 2324.45 1744.71 2323.50 1745.24 2322.60 1745.82 C 2321.23 1746.35 2319.89 1746.87 2318.55 1747.36 C 2317.23 1747.79 2315.88 1748.01 2314.57 1748.27 C 2313.06 1749.12 2311.30 1748.99 2309.69 1749.14 C 2309.98 1751.67 2312.53 1752.06 2314.55 1752.81 C 2315.02 1752.91 2315.96 1753.11 2316.43 1753.21 C 2318.06 1753.83 2319.81 1754.17 2321.53 1754.66 C 2323.95 1755.34 2326.22 1756.48 2328.42 1757.77 C 2329.44 1758.23 2330.49 1758.71 2331.60 1759.18 C 2332.91 1759.92 2334.19 1760.74 2335.46 1761.66 C 2336.44 1762.29 2337.41 1762.94 2338.45 1763.63 C 2342.58 1766.64 2346.33 1770.42 2349.38 1774.54 C 2349.98 1775.50 2350.65 1776.49 2351.27 1777.52 C 2352.09 1779.29 2353.25 1780.87 2354.36 1782.52 C 2354.77 1783.84 2355.20 1785.18 2355.70 1786.53 C 2355.97 1787.47 2356.30 1788.43 2356.69 1789.39 C 2357.64 1790.89 2358.01 1792.65 2358.27 1794.43 C 2359.32 1796.33 2358.58 1798.72 2359.85 1800.58 C 2359.92 1801.83 2360.01 1803.11 2360.15 1804.42 C 2361.49 1806.35 2360.88 1808.78 2361.02 1811.00 C 2360.87 1815.97 2361.16 1820.95 2360.94 1825.93 C 2360.73 1826.34 2360.31 1827.17 2360.10 1827.58 C 2359.72 1830.88 2360.60 1834.38 2359.37 1837.56 C 2358.96 1838.54 2358.57 1839.54 2358.20 1840.56 C 2358.10 1841.03 2357.90 1841.97 2357.80 1842.44 C 2357.37 1843.41 2356.98 1844.41 2356.64 1845.44 C 2356.17 1847.12 2355.80 1848.84 2355.32 1850.54 C 2354.99 1851.51 2354.68 1852.50 2354.40 1853.52 C 2353.71 1854.48 2352.99 1855.42 2352.34 1856.42 C 2351.28 1858.08 2350.11 1859.68 2349.27 1861.48 C 2348.65 1862.47 2347.98 1863.44 2347.38 1864.45 C 2345.12 1868.07 2341.58 1870.61 2338.75 1873.75 C 2335.95 1876.22 2333.79 1879.48 2330.46 1881.28 C 2328.67 1882.11 2327.07 1883.28 2325.43 1884.34 C 2324.19 1885.23 2322.92 1886.06 2321.56 1886.74 C 2319.82 1887.66 2318.25 1888.85 2316.55 1889.83 C 2315.04 1889.99 2313.67 1890.57 2312.40 1891.31 C 2311.42 1891.64 2310.47 1891.97 2309.53 1892.29 C 2307.78 1892.87 2306.05 1893.48 2304.40 1894.24 C 2303.07 1894.77 2301.74 1895.26 2300.46 1895.82 C 2299.99 1895.92 2299.05 1896.11 2298.58 1896.21 C 2296.66 1897.32 2294.28 1896.63 2292.42 1897.81 C 2290.69 1897.99 2288.87 1897.77 2287.42 1898.85 C 2286.10 1898.93 2284.82 1899.01 2283.58 1899.15 C 2280.56 1900.89 2276.87 1899.58 2273.58 1900.10 C 2271.66 1901.56 2269.15 1900.85 2266.97 1901.02 C 2227.64 1900.97 2188.32 1901.01 2149.00 1901.00 C 2149.00 1805.67 2149.00 1710.33 2149.00 1615.00 M 2210.00 1665.00 C 2210.00 1686.00 2210.00 1707.00 2210.00 1728.00 C 2226.80 1727.93 2243.61 1728.14 2260.41 1727.89 C 2262.50 1726.27 2265.35 1727.61 2267.57 1726.27 C 2268.88 1726.01 2270.22 1725.78 2271.53 1725.35 C 2273.22 1724.82 2274.91 1724.20 2276.44 1723.26 C 2278.21 1722.48 2279.92 1721.56 2281.45 1720.34 C 2283.14 1719.45 2284.52 1718.11 2285.75 1716.65 C 2286.62 1714.88 2287.76 1713.26 2288.87 1711.63 C 2289.54 1709.99 2290.02 1708.30 2290.27 1706.57 C 2291.09 1705.02 2290.99 1703.24 2291.19 1701.58 C 2292.52 1698.16 2292.53 1693.82 2291.19 1690.42 C 2290.98 1688.70 2291.14 1686.90 2290.18 1685.42 C 2290.11 1684.93 2289.99 1683.95 2289.93 1683.46 C 2289.08 1682.12 2288.22 1680.81 2287.35 1679.56 C 2285.96 1677.08 2283.92 1675.02 2281.45 1673.66 C 2279.93 1672.41 2278.21 1671.50 2276.44 1670.74 C 2274.37 1669.20 2271.73 1669.14 2269.43 1668.22 C 2268.97 1668.11 2268.04 1667.89 2267.58 1667.78 C 2265.75 1666.65 2263.57 1667.03 2261.59 1666.86 C 2258.56 1665.10 2254.87 1666.39 2251.58 1665.90 C 2251.17 1665.69 2250.35 1665.27 2249.94 1665.06 C 2236.63 1664.90 2223.31 1665.05 2210.00 1665.00 M 2210.00 1777.00 C 2210.00 1801.67 2210.00 1826.33 2210.00 1851.00 C 2226.32 1851.02 2242.64 1850.96 2258.97 1851.03 C 2260.83 1850.93 2262.94 1851.38 2264.58 1850.14 C 2266.56 1849.97 2268.66 1850.20 2270.56 1849.35 C 2271.53 1848.99 2272.52 1848.64 2273.54 1848.31 C 2274.52 1847.97 2275.51 1847.63 2276.54 1847.30 C 2277.49 1846.99 2278.47 1846.69 2279.47 1846.40 C 2281.07 1845.27 2282.66 1844.10 2284.46 1843.28 C 2287.82 1841.13 2290.97 1838.18 2292.73 1834.55 C 2293.49 1833.10 2294.46 1831.79 2295.42 1830.48 C 2295.82 1828.77 2296.06 1827.01 2296.81 1825.43 C 2296.90 1824.45 2297.02 1823.50 2297.17 1822.57 C 2298.72 1819.99 2297.75 1816.84 2298.00 1814.02 C 2297.73 1810.50 2298.67 1806.79 2297.34 1803.45 C 2296.97 1802.43 2296.62 1801.44 2296.31 1800.47 C 2295.88 1799.05 2295.33 1797.70 2294.78 1796.39 C 2292.51 1791.28 2288.35 1787.05 2283.60 1784.20 C 2282.18 1783.62 2280.83 1783.01 2279.60 1782.20 C 2277.87 1781.49 2276.12 1780.91 2274.46 1780.17 C 2273.99 1780.08 2273.05 1779.89 2272.57 1779.79 C 2271.31 1779.08 2269.91 1778.93 2268.58 1778.73 C 2266.35 1777.35 2263.49 1778.71 2261.42 1777.11 C 2244.28 1776.85 2227.14 1777.07 2210.00 1777.00 Z" />
<path fill="#0e6dce" opacity="1.00" d=" M 2493.42 1680.90 C 2494.99 1679.57 2497.07 1680.03 2498.99 1679.97 C 2506.62 1680.11 2514.28 1679.84 2521.93 1680.07 C 2522.34 1680.26 2523.17 1680.66 2523.58 1680.85 C 2524.82 1680.93 2526.10 1681.01 2527.42 1681.15 C 2529.53 1682.65 2532.34 1681.39 2534.58 1682.73 C 2535.90 1682.94 2537.30 1683.10 2538.57 1683.79 C 2539.04 1683.90 2539.96 1684.12 2540.43 1684.23 C 2542.08 1684.86 2543.87 1685.11 2545.57 1685.79 C 2546.04 1685.88 2546.99 1686.08 2547.46 1686.18 C 2549.41 1687.06 2551.58 1687.54 2553.44 1688.75 C 2555.12 1689.58 2556.84 1690.40 2558.56 1691.26 C 2559.84 1691.97 2561.18 1692.60 2562.59 1693.20 C 2564.28 1694.16 2565.90 1695.28 2567.57 1696.36 C 2568.52 1697.01 2569.55 1697.68 2570.60 1698.33 C 2571.05 1698.66 2571.94 1699.33 2572.39 1699.67 C 2575.75 1701.48 2577.95 1704.75 2580.77 1707.27 C 2583.24 1710.06 2586.55 1712.22 2588.29 1715.63 C 2589.72 1717.18 2591.30 1718.66 2592.38 1720.55 C 2592.98 1721.50 2593.65 1722.49 2594.29 1723.52 C 2595.16 1725.64 2596.81 1727.34 2597.70 1729.49 C 2598.32 1730.50 2598.99 1731.48 2599.74 1732.50 C 2600.00 1733.46 2600.31 1734.42 2600.68 1735.41 C 2601.96 1737.62 2602.21 1740.32 2603.82 1742.40 C 2604.34 1743.71 2604.86 1745.07 2605.34 1746.46 C 2605.79 1748.15 2606.12 1749.89 2606.78 1751.57 C 2606.89 1752.04 2607.11 1752.96 2607.23 1753.43 C 2607.86 1755.09 2608.08 1756.90 2608.82 1758.57 C 2608.90 1759.50 2609.02 1760.45 2609.18 1761.42 C 2610.51 1763.50 2609.83 1766.06 2610.12 1768.41 C 2611.76 1770.50 2610.19 1773.47 2611.89 1775.59 C 2612.07 1785.19 2612.07 1794.81 2611.89 1804.42 C 2609.42 1808.71 2612.50 1814.20 2610.18 1818.58 C 2610.02 1819.50 2609.90 1820.45 2609.81 1821.42 C 2609.07 1822.62 2608.94 1824.04 2608.73 1825.42 C 2607.76 1827.35 2608.20 1829.62 2607.28 1831.58 C 2607.00 1832.90 2606.82 1834.29 2606.28 1835.57 C 2606.00 1836.89 2605.78 1838.24 2605.35 1839.54 C 2604.85 1840.89 2604.33 1842.23 2603.82 1843.60 C 2603.24 1844.51 2602.71 1845.46 2602.25 1846.45 C 2601.99 1846.93 2601.48 1847.91 2601.23 1848.40 C 2600.07 1851.12 2599.16 1853.95 2597.79 1856.59 C 2597.03 1857.91 2596.20 1859.19 2595.36 1860.46 C 2594.47 1861.86 2593.41 1863.14 2592.35 1864.42 C 2591.16 1866.17 2589.79 1867.80 2588.65 1869.58 C 2587.53 1870.82 2586.45 1872.12 2585.70 1873.62 C 2583.41 1875.99 2581.37 1878.79 2578.37 1880.29 C 2576.73 1881.71 2575.22 1883.26 2573.64 1884.72 C 2570.44 1886.49 2568.20 1889.64 2564.57 1890.74 C 2562.52 1891.68 2560.53 1892.69 2558.56 1893.73 C 2555.98 1894.73 2553.85 1896.48 2551.54 1897.92 C 2551.05 1897.99 2550.06 1898.12 2549.57 1898.18 C 2547.88 1898.85 2546.11 1899.15 2544.43 1899.73 C 2543.03 1899.94 2541.64 1900.11 2540.42 1900.78 C 2539.96 1900.89 2539.04 1901.11 2538.58 1901.22 C 2537.29 1901.84 2535.90 1902.00 2534.57 1902.27 C 2533.28 1902.83 2531.89 1903.01 2530.57 1903.27 C 2526.77 1905.27 2522.06 1902.60 2518.42 1904.89 C 2509.14 1905.07 2499.85 1905.07 2490.59 1904.89 C 2488.46 1903.22 2485.52 1904.74 2483.41 1903.15 C 2481.38 1902.94 2479.24 1903.27 2477.43 1902.27 C 2476.03 1902.01 2474.64 1901.85 2473.42 1901.22 C 2472.96 1901.11 2472.03 1900.90 2471.57 1900.79 C 2470.53 1900.38 2469.52 1900.01 2468.53 1899.70 C 2467.15 1899.21 2465.80 1898.75 2464.50 1898.28 C 2462.74 1897.82 2461.03 1897.23 2459.55 1896.26 C 2459.05 1896.01 2458.06 1895.51 2457.57 1895.26 C 2456.18 1894.62 2454.84 1893.97 2453.58 1893.23 C 2452.49 1892.71 2451.43 1892.23 2450.40 1891.82 C 2449.05 1891.04 2447.76 1890.21 2446.54 1889.34 C 2445.51 1888.68 2444.49 1888.00 2443.54 1887.38 C 2441.77 1886.17 2440.19 1884.74 2438.38 1883.69 C 2433.85 1879.50 2429.53 1875.10 2425.28 1870.64 C 2424.27 1868.18 2421.78 1866.79 2420.64 1864.44 C 2419.74 1863.18 2418.91 1861.91 2418.21 1860.59 C 2417.33 1857.99 2415.47 1855.95 2414.20 1853.58 C 2413.60 1852.19 2412.98 1850.84 2412.21 1849.60 C 2411.29 1847.56 2410.67 1845.42 2409.80 1843.41 C 2408.69 1841.95 2408.16 1840.21 2407.66 1838.52 C 2407.17 1836.80 2406.83 1835.06 2406.22 1833.43 C 2406.11 1832.97 2405.89 1832.04 2405.78 1831.57 C 2405.09 1830.31 2404.93 1828.91 2404.72 1827.58 C 2404.12 1826.28 2403.93 1824.90 2403.74 1823.57 C 2402.54 1821.42 2403.08 1818.90 2402.88 1816.59 C 2401.20 1814.47 2402.77 1811.50 2401.11 1809.41 C 2400.92 1799.14 2400.92 1788.85 2401.11 1778.59 C 2403.44 1774.58 2400.63 1769.53 2402.74 1765.43 C 2402.93 1764.04 2403.06 1762.62 2403.82 1761.42 C 2403.90 1760.45 2404.02 1759.50 2404.18 1758.58 C 2405.37 1756.70 2404.60 1754.28 2405.82 1752.42 C 2405.91 1751.45 2406.03 1750.50 2406.19 1749.57 C 2407.02 1747.56 2407.15 1745.31 2408.24 1743.40 C 2409.13 1741.47 2409.52 1739.32 2410.73 1737.55 C 2410.99 1737.06 2411.52 1736.09 2411.78 1735.60 C 2412.84 1733.28 2413.35 1730.72 2414.74 1728.56 C 2415.48 1726.75 2416.41 1725.04 2417.65 1723.54 C 2418.47 1722.09 2419.55 1720.82 2420.65 1719.59 C 2421.80 1717.80 2423.16 1716.17 2424.36 1714.42 C 2425.42 1713.14 2426.52 1711.86 2427.29 1710.37 C 2428.21 1709.25 2429.23 1708.22 2430.35 1707.28 C 2433.31 1706.14 2434.66 1702.85 2437.63 1701.73 C 2439.57 1699.99 2441.21 1697.89 2443.55 1696.64 C 2444.77 1695.75 2446.05 1694.92 2447.40 1694.19 C 2448.44 1693.71 2449.49 1693.23 2450.58 1692.77 C 2452.52 1691.66 2454.53 1690.69 2456.57 1689.75 C 2457.86 1689.02 2459.18 1688.33 2460.55 1687.67 C 2461.49 1687.31 2462.45 1686.97 2463.45 1686.66 C 2465.14 1686.17 2466.88 1685.83 2468.57 1685.23 C 2469.04 1685.12 2469.96 1684.89 2470.42 1684.78 C 2471.64 1684.11 2473.04 1683.95 2474.43 1683.73 C 2476.10 1683.13 2477.90 1682.88 2479.57 1682.19 C 2480.49 1682.04 2481.43 1681.91 2482.42 1681.82 C 2485.78 1680.08 2489.77 1681.43 2493.42 1680.90 M 2495.43 1728.73 C 2494.05 1728.94 2492.71 1729.17 2491.43 1729.62 C 2490.40 1729.99 2489.40 1730.40 2488.44 1730.84 C 2487.94 1730.89 2486.95 1731.01 2486.46 1731.07 C 2484.75 1732.13 2483.11 1733.27 2481.44 1734.36 C 2480.39 1735.00 2479.40 1735.68 2478.37 1736.28 C 2477.25 1737.22 2476.21 1738.24 2475.27 1739.35 C 2474.11 1742.06 2471.28 1743.61 2470.19 1746.39 C 2469.71 1747.44 2469.23 1748.50 2468.77 1749.57 C 2467.71 1751.03 2467.17 1752.76 2466.67 1754.48 C 2466.17 1756.16 2465.83 1757.90 2465.22 1759.57 C 2465.11 1760.03 2464.89 1760.96 2464.79 1761.43 C 2463.83 1762.92 2463.96 1764.70 2463.81 1766.42 C 2462.27 1768.56 2463.74 1771.47 2462.11 1773.59 C 2461.35 1778.19 2463.14 1783.29 2461.11 1787.58 C 2461.28 1791.20 2460.03 1795.27 2461.89 1798.58 C 2462.58 1802.86 2460.87 1807.61 2462.89 1811.59 C 2463.10 1813.90 2462.47 1816.47 2463.81 1818.58 C 2463.96 1820.24 2463.82 1822.05 2464.80 1823.57 C 2464.89 1824.04 2465.08 1824.99 2465.18 1825.46 C 2465.70 1826.77 2466.20 1828.13 2466.73 1829.50 C 2467.18 1831.64 2468.23 1833.61 2469.27 1835.56 C 2469.96 1836.85 2470.59 1838.19 2471.21 1839.59 C 2472.25 1842.38 2475.11 1843.90 2476.26 1846.64 C 2476.91 1847.34 2477.61 1848.04 2478.36 1848.75 C 2479.79 1849.50 2481.16 1850.42 2482.57 1851.32 C 2483.76 1852.23 2485.06 1853.07 2486.45 1853.79 C 2487.49 1854.00 2488.53 1854.34 2489.57 1854.79 C 2490.04 1854.89 2490.97 1855.10 2491.44 1855.20 C 2492.40 1855.58 2493.40 1855.97 2494.44 1856.37 C 2497.60 1857.59 2501.09 1856.73 2504.42 1857.09 C 2505.87 1858.36 2508.10 1858.40 2509.58 1857.09 C 2512.54 1856.70 2515.82 1857.73 2518.57 1856.20 C 2519.04 1856.10 2519.99 1855.91 2520.46 1855.82 C 2521.76 1855.24 2523.13 1854.75 2524.52 1854.26 C 2525.48 1853.97 2526.47 1853.69 2527.48 1853.40 C 2528.81 1852.45 2530.15 1851.51 2531.55 1850.63 C 2532.51 1849.94 2533.55 1849.30 2534.63 1848.73 C 2535.32 1848.03 2536.02 1847.33 2536.75 1846.65 C 2539.19 1843.03 2542.23 1839.82 2543.72 1835.56 C 2543.99 1835.07 2544.52 1834.10 2544.79 1833.61 C 2545.32 1832.25 2545.88 1830.91 2546.35 1829.54 C 2546.78 1827.81 2547.13 1826.07 2547.78 1824.43 C 2547.89 1823.96 2548.10 1823.04 2548.21 1822.57 C 2549.12 1821.05 2548.97 1819.25 2549.19 1817.58 C 2550.50 1815.47 2549.84 1812.90 2550.11 1810.59 C 2550.32 1810.17 2550.73 1809.35 2550.93 1808.93 C 2551.03 1797.82 2551.08 1786.69 2550.89 1775.59 C 2549.55 1773.83 2550.06 1771.58 2549.85 1769.59 C 2548.27 1767.44 2549.65 1764.59 2548.22 1762.42 C 2548.11 1761.96 2547.89 1761.03 2547.78 1760.57 C 2547.12 1758.89 2546.78 1757.14 2546.35 1755.45 C 2545.99 1754.46 2545.64 1753.49 2545.32 1752.54 C 2544.26 1750.55 2543.27 1748.54 2542.26 1746.56 C 2540.11 1741.57 2535.67 1737.80 2531.39 1734.66 C 2530.94 1734.34 2530.05 1733.68 2529.60 1733.35 C 2528.50 1732.66 2527.45 1731.91 2526.48 1731.18 C 2525.05 1731.01 2523.64 1730.90 2522.42 1730.22 C 2521.96 1730.11 2521.04 1729.89 2520.58 1729.78 C 2519.30 1729.10 2517.90 1728.94 2516.57 1728.73 C 2513.25 1727.22 2509.46 1728.28 2505.96 1728.01 C 2502.45 1728.27 2498.71 1727.23 2495.43 1728.73 Z" />
<path fill="#0e6dce" opacity="1.00" d=" M 2742.58 1680.11 C 2751.85 1679.93 2761.14 1679.92 2770.42 1680.11 C 2771.84 1681.22 2773.68 1680.96 2775.42 1681.19 C 2777.56 1682.61 2780.33 1681.42 2782.58 1682.73 C 2783.90 1682.94 2785.30 1683.09 2786.57 1683.78 C 2787.04 1683.89 2787.96 1684.11 2788.43 1684.22 C 2790.06 1684.84 2791.81 1685.17 2793.55 1685.66 C 2794.50 1685.98 2795.49 1686.33 2796.51 1686.70 C 2798.22 1687.12 2799.90 1687.76 2801.43 1688.75 C 2803.43 1689.70 2805.46 1690.66 2807.43 1691.76 C 2809.85 1692.88 2812.34 1693.96 2814.47 1695.67 C 2815.45 1696.29 2816.42 1696.94 2817.46 1697.64 C 2818.43 1698.28 2819.40 1698.94 2820.45 1699.63 C 2826.11 1703.84 2830.67 1709.41 2835.72 1714.36 C 2836.71 1716.79 2839.16 1718.20 2840.38 1720.55 C 2840.97 1721.50 2841.65 1722.49 2842.29 1723.52 C 2843.17 1725.63 2844.80 1727.34 2845.70 1729.49 C 2846.32 1730.50 2846.98 1731.48 2847.73 1732.50 C 2847.99 1733.46 2848.30 1734.43 2848.68 1735.41 C 2849.72 1737.36 2850.29 1739.54 2851.20 1741.60 C 2852.27 1743.01 2852.78 1744.76 2853.33 1746.48 C 2853.78 1748.16 2854.12 1749.90 2854.78 1751.57 C 2854.89 1752.04 2855.11 1752.96 2855.22 1753.43 C 2855.84 1755.09 2856.09 1756.89 2856.81 1758.58 C 2856.89 1759.50 2857.02 1760.45 2857.18 1761.42 C 2858.49 1763.50 2857.84 1766.06 2858.12 1768.41 C 2859.77 1770.50 2858.17 1773.48 2859.89 1775.59 C 2860.16 1783.70 2859.88 1791.83 2860.03 1799.95 C 2859.90 1801.83 2860.39 1803.96 2859.11 1805.58 C 2858.43 1809.86 2860.02 1814.54 2858.18 1818.58 C 2858.01 1819.50 2857.89 1820.45 2857.82 1821.42 C 2857.06 1822.62 2856.93 1824.03 2856.73 1825.42 C 2855.75 1827.35 2856.21 1829.62 2855.27 1831.57 C 2855.00 1832.90 2854.81 1834.28 2854.28 1835.57 C 2853.99 1836.89 2853.77 1838.24 2853.36 1839.55 C 2852.87 1840.91 2852.32 1842.25 2851.78 1843.60 C 2851.52 1844.09 2851.01 1845.06 2850.75 1845.55 C 2850.23 1846.50 2849.71 1847.45 2849.19 1848.40 C 2848.10 1851.15 2847.14 1853.95 2845.80 1856.59 C 2845.02 1857.90 2844.20 1859.19 2843.37 1860.47 C 2842.16 1862.20 2840.74 1863.78 2839.67 1865.60 C 2838.85 1866.51 2838.07 1867.44 2837.33 1868.40 C 2836.20 1870.20 2834.75 1871.77 2833.69 1873.62 C 2831.41 1875.99 2829.37 1878.80 2826.37 1880.29 C 2824.73 1881.71 2823.22 1883.26 2821.64 1884.72 C 2818.60 1886.14 2816.82 1889.39 2813.44 1890.26 C 2812.09 1890.94 2810.75 1891.59 2809.44 1892.26 C 2808.10 1892.96 2806.76 1893.60 2805.42 1894.21 C 2803.35 1895.29 2801.50 1896.69 2799.54 1897.92 C 2799.05 1897.99 2798.06 1898.12 2797.57 1898.19 C 2795.89 1898.87 2794.10 1899.13 2792.43 1899.73 C 2791.03 1899.94 2789.64 1900.11 2788.42 1900.78 C 2787.96 1900.89 2787.04 1901.11 2786.57 1901.22 C 2785.30 1901.87 2783.89 1902.01 2782.57 1902.28 C 2781.27 1902.83 2779.89 1903.01 2778.57 1903.27 C 2775.13 1904.82 2771.20 1903.58 2767.58 1904.10 C 2765.97 1905.39 2763.86 1904.92 2762.02 1905.03 C 2754.36 1904.88 2746.70 1905.14 2739.07 1904.93 C 2738.66 1904.73 2737.83 1904.33 2737.42 1904.13 C 2735.77 1904.01 2734.16 1903.95 2732.59 1903.87 C 2730.44 1902.30 2727.62 1903.60 2725.43 1902.27 C 2724.02 1902.01 2722.63 1901.87 2721.43 1901.21 C 2720.96 1901.11 2720.03 1900.90 2719.56 1900.79 C 2718.54 1900.37 2717.53 1899.99 2716.55 1899.65 C 2715.52 1899.31 2714.51 1899.00 2713.53 1898.72 C 2712.17 1898.21 2710.84 1897.77 2709.55 1897.30 C 2708.18 1896.61 2706.85 1895.95 2705.57 1895.25 C 2703.52 1894.29 2701.52 1893.29 2699.56 1892.26 C 2697.74 1891.49 2696.04 1890.54 2694.54 1889.32 C 2693.50 1888.67 2692.48 1888.00 2691.53 1887.38 C 2689.77 1886.17 2688.20 1884.73 2686.38 1883.69 C 2683.33 1881.04 2680.63 1878.04 2677.75 1875.25 C 2675.93 1873.40 2673.80 1871.76 2672.71 1869.38 C 2671.26 1867.79 2669.64 1866.34 2668.66 1864.44 C 2667.43 1862.91 2666.43 1861.23 2665.79 1859.42 C 2664.49 1857.04 2662.70 1854.96 2661.74 1852.44 C 2661.01 1851.10 2660.34 1849.76 2659.70 1848.45 C 2659.04 1846.76 2658.47 1845.05 2657.82 1843.41 C 2656.68 1841.96 2656.17 1840.21 2655.66 1838.53 C 2655.16 1836.81 2654.82 1835.07 2654.22 1833.43 C 2654.11 1832.97 2653.89 1832.04 2653.78 1831.58 C 2653.09 1830.31 2652.92 1828.91 2652.73 1827.57 C 2652.11 1826.29 2651.92 1824.90 2651.73 1823.57 C 2650.16 1821.05 2651.89 1817.82 2650.14 1815.41 C 2649.88 1813.38 2650.41 1811.14 2649.11 1809.41 C 2648.83 1800.60 2649.10 1791.79 2648.97 1782.98 C 2649.01 1781.07 2648.57 1779.00 2649.89 1777.42 C 2650.50 1773.45 2648.99 1769.10 2650.83 1765.43 C 2650.90 1764.45 2651.02 1763.50 2651.18 1762.58 C 2651.88 1761.34 2651.99 1759.91 2652.27 1758.57 C 2653.27 1756.63 2652.63 1754.28 2653.82 1752.42 C 2653.90 1751.45 2654.02 1750.49 2654.18 1749.57 C 2655.05 1747.56 2655.14 1745.31 2656.24 1743.40 C 2656.94 1741.74 2657.48 1740.03 2658.22 1738.40 C 2658.48 1737.91 2659.01 1736.94 2659.27 1736.45 C 2660.41 1734.63 2660.90 1732.52 2661.71 1730.57 C 2662.20 1729.50 2662.70 1728.45 2663.20 1727.40 C 2663.92 1726.06 2664.74 1724.77 2665.63 1723.54 C 2666.79 1721.77 2668.21 1720.19 2669.33 1718.40 C 2670.07 1717.44 2670.86 1716.51 2671.67 1715.60 C 2672.75 1713.77 2674.23 1712.22 2675.29 1710.37 C 2676.21 1709.25 2677.23 1708.21 2678.36 1707.27 C 2680.80 1706.21 2682.37 1703.96 2684.36 1702.27 C 2687.27 1701.10 2688.70 1697.97 2691.54 1696.66 C 2693.06 1695.45 2694.73 1694.46 2696.56 1693.74 C 2698.17 1692.91 2699.79 1692.07 2701.44 1691.25 C 2703.12 1690.40 2704.83 1689.57 2706.56 1688.75 C 2708.04 1687.76 2709.73 1687.14 2711.47 1686.66 C 2713.15 1686.17 2714.88 1685.82 2716.57 1685.22 C 2717.03 1685.11 2717.96 1684.89 2718.42 1684.78 C 2719.64 1684.11 2721.03 1683.95 2722.43 1683.73 C 2723.66 1683.11 2725.03 1682.94 2726.43 1682.73 C 2727.66 1682.12 2729.03 1681.93 2730.43 1681.73 C 2734.19 1679.69 2738.92 1682.40 2742.58 1680.11 M 2743.43 1728.74 C 2742.03 1728.94 2740.63 1729.09 2739.43 1729.78 C 2738.96 1729.89 2738.04 1730.12 2737.58 1730.23 C 2736.53 1730.61 2735.49 1730.94 2734.45 1731.21 C 2733.05 1731.89 2731.76 1732.73 2730.57 1733.68 C 2729.15 1734.55 2727.78 1735.47 2726.35 1736.25 C 2725.24 1737.21 2724.21 1738.24 2723.27 1739.35 C 2720.74 1742.92 2717.86 1746.21 2716.21 1750.39 C 2715.60 1751.70 2715.08 1753.06 2714.66 1754.46 C 2714.16 1756.15 2713.80 1757.89 2713.22 1759.57 C 2713.11 1760.03 2712.89 1760.96 2712.78 1761.42 C 2711.83 1762.92 2711.95 1764.71 2711.81 1766.42 C 2710.24 1768.56 2711.75 1771.48 2710.11 1773.59 C 2709.83 1777.85 2710.14 1782.13 2709.89 1786.41 C 2708.05 1789.73 2709.27 1793.77 2709.12 1797.42 C 2711.09 1801.38 2709.39 1806.12 2710.11 1810.41 C 2711.96 1812.80 2710.05 1816.11 2711.80 1818.58 C 2711.92 1820.24 2711.96 1821.96 2712.61 1823.57 C 2712.97 1824.55 2713.37 1825.54 2713.81 1826.56 C 2713.90 1827.03 2714.08 1827.98 2714.17 1828.46 C 2715.06 1830.42 2715.53 1832.58 2716.74 1834.44 C 2717.35 1835.76 2718.00 1837.11 2718.74 1838.44 C 2719.57 1841.84 2722.87 1843.58 2724.26 1846.65 C 2724.92 1847.33 2725.62 1848.03 2726.38 1848.73 C 2727.40 1849.30 2728.39 1849.94 2729.44 1850.64 C 2731.07 1851.70 2732.69 1852.83 2734.45 1853.79 C 2735.48 1854.02 2736.53 1854.35 2737.57 1854.78 C 2738.04 1854.88 2738.97 1855.09 2739.44 1855.20 C 2740.40 1855.57 2741.40 1855.96 2742.44 1856.37 C 2745.60 1857.61 2749.09 1856.72 2752.42 1857.09 C 2753.86 1858.39 2756.09 1858.38 2757.58 1857.09 C 2760.54 1856.76 2763.72 1857.58 2766.55 1856.33 C 2767.51 1855.97 2768.51 1855.64 2769.55 1855.33 C 2770.54 1854.96 2771.54 1854.57 2772.57 1854.17 C 2773.06 1854.11 2774.05 1853.99 2774.54 1853.93 C 2776.20 1852.83 2777.85 1851.70 2779.56 1850.64 C 2780.51 1849.94 2781.55 1849.30 2782.63 1848.73 C 2783.31 1848.02 2784.02 1847.33 2784.75 1846.65 C 2785.84 1843.90 2788.73 1842.39 2789.79 1839.60 C 2790.33 1838.19 2790.98 1836.85 2791.73 1835.56 C 2792.75 1833.61 2793.71 1831.63 2794.35 1829.53 C 2794.77 1827.81 2795.12 1826.06 2795.78 1824.43 C 2795.89 1823.97 2796.11 1823.04 2796.22 1822.57 C 2797.11 1821.04 2796.97 1819.25 2797.19 1817.58 C 2798.92 1815.12 2796.99 1811.80 2798.89 1809.42 C 2799.16 1799.60 2798.88 1789.78 2799.03 1779.97 C 2798.92 1778.07 2799.35 1776.02 2798.14 1774.42 C 2797.88 1772.38 2798.39 1770.16 2797.14 1768.42 C 2796.90 1766.38 2797.33 1764.21 2796.21 1762.43 C 2796.11 1761.96 2795.89 1761.03 2795.78 1760.57 C 2795.10 1758.90 2794.78 1757.14 2794.35 1755.45 C 2793.98 1754.47 2793.64 1753.51 2793.32 1752.58 C 2792.75 1751.50 2792.22 1750.45 2791.74 1749.43 C 2790.98 1748.11 2790.33 1746.76 2789.80 1745.40 C 2787.25 1741.11 2783.45 1737.48 2779.39 1734.67 C 2778.94 1734.34 2778.05 1733.68 2777.60 1733.35 C 2776.50 1732.66 2775.45 1731.91 2774.48 1731.18 C 2773.05 1731.01 2771.63 1730.91 2770.42 1730.22 C 2769.96 1730.11 2769.04 1729.89 2768.58 1729.78 C 2767.29 1729.10 2765.90 1728.94 2764.57 1728.73 C 2761.28 1727.20 2757.51 1728.28 2754.05 1728.01 C 2750.51 1728.29 2746.73 1727.21 2743.43 1728.74 Z" />
<path fill="#0e6dce" opacity="1.00" d=" M 3212.41 1680.88 C 3214.01 1679.58 3216.09 1680.03 3218.03 1679.97 C 3227.82 1680.11 3237.62 1679.83 3247.41 1680.11 C 3249.75 1681.71 3252.73 1680.74 3255.41 1681.10 C 3257.12 1682.43 3259.36 1681.88 3261.42 1682.14 C 3263.51 1683.69 3266.34 1682.36 3268.57 1683.73 C 3269.88 1683.94 3271.26 1684.14 3272.58 1684.72 C 3273.90 1684.94 3275.28 1685.12 3276.58 1685.77 C 3277.04 1685.88 3277.96 1686.10 3278.43 1686.21 C 3279.63 1686.86 3281.02 1687.02 3282.43 1687.27 C 3284.08 1687.79 3285.80 1688.19 3287.54 1688.66 C 3288.89 1689.06 3290.23 1689.62 3291.60 1690.26 C 3292.82 1690.76 3294.10 1691.21 3295.41 1691.75 C 3297.01 1692.48 3298.73 1693.04 3300.41 1693.75 C 3301.67 1694.36 3303.03 1694.92 3304.48 1695.29 C 3305.14 1695.54 3306.46 1696.05 3307.12 1696.30 C 3307.06 1698.15 3306.71 1699.98 3305.74 1701.60 C 3305.16 1702.84 3304.73 1704.16 3304.32 1705.48 C 3304.04 1705.96 3303.48 1706.91 3303.20 1707.39 C 3302.48 1709.04 3301.92 1710.75 3301.26 1712.42 C 3300.03 1714.66 3299.72 1717.31 3298.20 1719.40 C 3297.07 1722.13 3296.24 1724.99 3294.70 1727.54 C 3294.06 1729.22 3293.45 1730.92 3292.75 1732.59 C 3292.19 1733.83 3291.74 1735.12 3291.25 1736.40 C 3290.64 1737.60 3290.07 1738.83 3289.90 1740.20 C 3289.06 1739.64 3288.26 1739.13 3287.49 1738.66 C 3286.13 1738.22 3284.82 1737.80 3283.59 1737.26 C 3281.92 1736.48 3280.21 1735.94 3278.58 1735.25 C 3276.91 1734.48 3275.21 1733.94 3273.59 1733.25 C 3272.23 1732.59 3270.90 1732.05 3269.52 1731.72 C 3268.14 1731.20 3266.78 1730.75 3265.47 1730.31 C 3264.40 1729.95 3263.39 1729.59 3262.43 1729.22 C 3261.97 1729.11 3261.04 1728.89 3260.57 1728.78 C 3258.86 1728.11 3257.06 1727.87 3255.42 1727.19 C 3254.42 1727.04 3253.47 1726.92 3252.57 1726.82 C 3251.06 1725.80 3249.23 1725.98 3247.58 1725.81 C 3245.10 1724.05 3241.78 1725.98 3239.42 1724.11 C 3234.91 1723.86 3230.41 1724.07 3225.93 1723.98 C 3223.72 1724.03 3221.40 1723.59 3219.43 1724.73 C 3218.04 1724.94 3216.70 1725.18 3215.43 1725.62 C 3214.39 1725.99 3213.39 1726.40 3212.43 1726.85 C 3211.92 1726.89 3210.91 1726.99 3210.41 1727.03 C 3208.85 1728.75 3207.27 1730.55 3205.06 1731.38 C 3204.95 1732.37 3204.88 1733.38 3204.86 1734.42 C 3203.44 1736.82 3203.47 1740.13 3204.84 1742.58 C 3204.89 1743.08 3205.00 1744.07 3205.05 1744.57 C 3205.91 1745.46 3206.82 1746.38 3207.74 1747.34 C 3208.09 1748.78 3209.14 1749.83 3210.61 1750.30 C 3212.04 1751.63 3213.56 1752.94 3215.41 1753.79 C 3216.75 1754.34 3218.09 1755.01 3219.44 1755.74 C 3220.74 1756.36 3222.09 1757.02 3223.44 1757.74 C 3224.74 1758.36 3226.09 1759.01 3227.44 1759.74 C 3229.63 1760.98 3232.02 1761.85 3234.44 1762.70 C 3235.43 1763.20 3236.47 1763.74 3237.56 1764.30 C 3239.22 1764.91 3240.91 1765.49 3242.59 1766.25 C 3243.81 1766.76 3245.11 1767.20 3246.42 1767.74 C 3248.38 1768.71 3250.53 1769.31 3252.60 1770.20 C 3254.92 1771.94 3258.01 1772.08 3260.44 1773.74 C 3262.80 1774.89 3265.16 1776.09 3267.56 1777.26 C 3268.84 1777.96 3270.17 1778.60 3271.57 1779.23 C 3272.49 1779.72 3273.43 1780.23 3274.41 1780.78 C 3275.42 1781.23 3276.48 1781.71 3277.60 1782.19 C 3279.26 1783.17 3280.89 1784.27 3282.56 1785.36 C 3283.51 1786.00 3284.54 1786.68 3285.62 1787.30 C 3288.81 1789.73 3290.95 1793.48 3294.65 1795.27 C 3295.70 1796.21 3296.72 1797.25 3297.72 1798.37 C 3298.28 1799.41 3298.91 1800.41 3299.64 1801.45 C 3300.51 1802.78 3301.43 1804.11 3302.25 1805.55 C 3302.88 1806.95 3303.75 1808.24 3304.75 1809.49 C 3305.00 1810.51 3305.34 1811.54 3305.79 1812.57 C 3305.89 1813.04 3306.10 1813.97 3306.20 1814.44 C 3306.57 1815.41 3306.94 1816.41 3307.34 1817.45 C 3307.63 1818.43 3307.96 1819.43 3308.34 1820.45 C 3309.56 1823.26 3308.76 1826.42 3309.10 1829.42 C 3310.70 1831.62 3309.75 1834.49 3310.02 1837.04 C 3309.76 1839.53 3310.68 1842.38 3309.10 1844.58 C 3308.73 1847.55 3309.63 1850.77 3308.27 1853.57 C 3308.00 1854.91 3307.84 1856.31 3307.21 1857.57 C 3307.11 1858.04 3306.91 1858.98 3306.81 1859.45 C 3306.22 1860.77 3305.74 1862.14 3305.28 1863.53 C 3304.94 1864.49 3304.64 1865.47 3304.36 1866.46 C 3303.29 1868.60 3301.94 1870.57 3300.64 1872.57 C 3299.92 1873.51 3299.28 1874.50 3298.71 1875.52 C 3297.34 1878.97 3294.18 1881.19 3291.63 1883.71 C 3289.18 1884.79 3287.57 1887.00 3285.65 1888.75 C 3283.87 1889.63 3282.28 1890.81 3280.59 1891.79 C 3278.30 1892.58 3276.37 1894.00 3274.48 1895.41 C 3273.46 1895.68 3272.47 1895.97 3271.53 1896.27 C 3269.77 1896.87 3268.02 1897.47 3266.40 1898.30 C 3265.42 1898.64 3264.46 1898.98 3263.54 1899.32 C 3262.51 1899.64 3261.51 1899.98 3260.56 1900.36 C 3259.22 1900.79 3257.87 1901.00 3256.57 1901.27 C 3254.71 1902.29 3252.55 1901.93 3250.59 1902.14 C 3248.79 1903.39 3246.56 1902.90 3244.58 1903.14 C 3242.51 1904.57 3239.88 1903.81 3237.59 1904.12 C 3235.94 1905.38 3233.82 1904.93 3231.96 1905.03 C 3219.32 1904.90 3206.69 1905.12 3194.07 1904.93 C 3193.65 1904.73 3192.83 1904.32 3192.41 1904.11 C 3190.05 1903.81 3187.42 1904.60 3185.41 1903.10 C 3182.73 1902.77 3179.81 1903.63 3177.42 1902.19 C 3175.69 1901.99 3173.94 1902.09 3172.43 1901.27 C 3171.02 1901.01 3169.65 1900.83 3168.43 1900.28 C 3167.02 1900.01 3165.65 1899.84 3164.43 1899.27 C 3163.02 1899.00 3161.62 1898.86 3160.43 1898.20 C 3159.95 1898.11 3159.01 1897.93 3158.53 1897.83 C 3157.15 1897.24 3155.78 1896.72 3154.47 1896.16 C 3153.98 1896.08 3153.02 1895.91 3152.54 1895.83 C 3151.19 1895.26 3149.87 1894.78 3148.59 1894.25 C 3147.36 1893.69 3146.17 1893.16 3145.00 1892.72 C 3145.00 1876.39 3144.99 1860.06 3145.00 1843.74 C 3146.18 1844.16 3147.37 1844.68 3148.58 1845.26 C 3150.22 1845.92 3151.92 1846.48 3153.59 1847.25 C 3154.82 1847.76 3156.10 1848.21 3157.41 1848.75 C 3159.07 1849.47 3160.82 1850.07 3162.54 1850.83 C 3163.01 1850.92 3163.96 1851.10 3164.44 1851.19 C 3165.39 1851.58 3166.40 1851.96 3167.45 1852.34 C 3168.41 1852.65 3169.41 1852.98 3170.45 1853.34 C 3172.13 1853.80 3173.88 1854.11 3175.57 1854.79 C 3176.04 1854.89 3176.97 1855.10 3177.44 1855.20 C 3178.40 1855.58 3179.40 1855.97 3180.43 1856.39 C 3182.39 1857.14 3184.70 1856.68 3186.58 1857.85 C 3187.81 1857.93 3189.09 1858.01 3190.42 1858.15 C 3191.87 1859.18 3193.68 1858.96 3195.42 1859.19 C 3197.26 1860.41 3199.74 1859.52 3201.58 1860.89 C 3205.52 1861.55 3209.94 1859.91 3213.58 1861.89 C 3218.52 1861.60 3223.93 1863.04 3228.58 1861.14 C 3230.56 1860.95 3232.70 1861.26 3234.58 1860.27 C 3235.90 1860.01 3237.31 1859.86 3238.58 1859.18 C 3239.07 1859.12 3240.05 1858.99 3240.54 1858.93 C 3242.21 1857.84 3243.81 1856.61 3245.65 1855.75 C 3247.40 1854.36 3248.77 1852.58 3249.85 1850.62 C 3251.64 1846.21 3251.66 1840.77 3249.86 1836.38 C 3248.74 1834.71 3247.66 1833.05 3246.66 1831.37 C 3244.80 1830.26 3243.19 1828.82 3241.47 1827.61 C 3240.42 1826.93 3239.46 1826.30 3238.48 1825.72 C 3235.75 1824.36 3233.37 1822.42 3230.56 1821.27 C 3230.07 1821.01 3229.08 1820.51 3228.58 1820.25 C 3227.48 1819.73 3226.42 1819.23 3225.43 1818.76 C 3224.10 1818.00 3222.75 1817.34 3221.43 1816.75 C 3218.94 1815.26 3216.26 1814.21 3213.56 1813.30 C 3212.47 1812.74 3211.43 1812.21 3210.44 1811.70 C 3208.44 1810.90 3206.33 1810.42 3204.55 1809.27 C 3204.06 1809.00 3203.09 1808.48 3202.60 1808.22 C 3200.90 1807.50 3199.21 1806.91 3197.55 1806.29 C 3195.53 1805.27 3193.51 1804.33 3191.61 1803.21 C 3189.90 1802.49 3188.20 1801.92 3186.52 1801.31 C 3186.03 1801.04 3185.06 1800.52 3184.57 1800.26 C 3181.99 1799.30 3179.95 1797.46 3177.58 1796.21 C 3175.72 1795.52 3174.04 1794.52 3172.53 1793.33 C 3171.50 1792.67 3170.49 1792.00 3169.55 1791.38 C 3164.82 1788.57 3162.14 1783.30 3157.33 1780.65 C 3156.42 1779.20 3155.52 1777.80 3154.71 1776.37 C 3154.35 1775.94 3153.65 1775.07 3153.30 1774.64 C 3152.31 1772.89 3151.19 1771.26 3150.14 1769.61 C 3149.49 1767.86 3148.91 1766.12 3148.17 1764.46 C 3148.08 1763.99 3147.89 1763.05 3147.80 1762.58 C 3147.08 1761.31 3146.93 1759.91 3146.73 1758.57 C 3145.68 1756.72 3146.00 1754.57 3145.86 1752.58 C 3143.81 1748.96 3145.91 1744.54 3144.48 1740.71 C 3145.71 1737.03 3144.00 1732.89 3145.81 1729.42 C 3145.92 1727.72 3145.95 1726.00 3146.62 1724.43 C 3146.97 1723.41 3147.37 1722.41 3147.81 1721.44 C 3147.90 1720.97 3148.09 1720.02 3148.19 1719.55 C 3148.71 1718.20 3149.17 1716.84 3149.65 1715.49 C 3150.26 1714.48 3150.92 1713.50 3151.67 1712.57 C 3152.52 1711.16 3153.44 1709.78 3154.30 1708.38 C 3154.65 1707.94 3155.34 1707.06 3155.68 1706.62 C 3156.94 1704.01 3159.25 1702.18 3161.38 1700.30 C 3164.53 1698.92 3166.07 1695.35 3169.44 1694.28 C 3171.46 1693.09 3173.31 1691.56 3175.57 1690.76 C 3176.49 1690.24 3177.44 1689.72 3178.40 1689.18 C 3180.06 1688.48 3181.79 1687.89 3183.53 1687.28 C 3184.50 1686.95 3185.51 1686.64 3186.55 1686.34 C 3187.52 1685.96 3188.53 1685.58 3189.56 1685.20 C 3190.03 1685.10 3190.97 1684.90 3191.44 1684.81 C 3192.40 1684.39 3193.40 1683.99 3194.44 1683.63 C 3195.99 1682.95 3197.70 1682.94 3199.42 1682.81 C 3201.19 1681.64 3203.36 1682.04 3205.41 1681.86 C 3207.46 1680.43 3210.05 1681.13 3212.41 1680.88 Z" />
</g>
</svg>
