<?xml version="1.0" encoding="utf-8"?>
<!-- Svg Vector Icons : http://www.onlinewebfonts.com/icon -->
<!DOCTYPE svg PUBLIC "-//W3C//DTD SVG 1.1//EN" "http://www.w3.org/Graphics/SVG/1.1/DTD/svg11.dtd">
<svg version="1.1" xmlns="http://www.w3.org/2000/svg" xmlns:xlink="http://www.w3.org/1999/xlink" x="0px" y="0px" viewBox="0 0 1000 1000" enable-background="new 0 0 1000 1000" xml:space="preserve">
<metadata> Svg Vector Icons : http://www.onlinewebfonts.com/icon </metadata>
<g><g transform="translate(0.000000,511.000000) scale(0.100000,-0.100000)"><path d="M3112.3,3667.4c-8-21.3-10.6-281.7-8-579.3l8-544.8h159.4h159.4v571.3V3686l-154.1,8C3168.1,3699.3,3120.3,3691.3,3112.3,3667.4z"/><path d="M1013,2742.6l-103.6-106.3l395.9-398.6c217.9-220.6,411.9-398.6,425.2-398.6c34.5,0,225.9,191.3,225.9,225.9c0,42.5-754.7,783.9-797.2,783.9C1135.3,2848.9,1068.8,2801.1,1013,2742.6z"/><path d="M4991.1,2468.9c-207.3-207.3-377.3-390.6-377.3-406.6c0-34.5,191.3-223.2,228.5-223.2c42.5,0,781.3,754.7,781.3,799.9c0,50.5-162.1,209.9-215.3,209.9C5387,2848.9,5201,2678.9,4991.1,2468.9z"/><path d="M3067.2,2232.4c-709.5-66.4-1347.3-656.4-1493.4-1381.8c-53.1-257.8-53.1-422.5,0-680.3c69.1-350.8,217.9-621.8,483.6-890.2c140.8-143.5,154.1-151.5,186-106.3c18.6,26.6,74.4,103.6,122.2,170.1l90.3,124.9l-127.5,124.9c-393.3,388-486.3,1044.3-217.9,1538.6c417.2,770.6,1442.9,935.4,2086,329.5l135.5-124.9l132.9,124.9c74.4,69.1,138.2,138.2,143.5,154.1c15.9,55.8-324.2,329.5-539.4,435.8C3731.5,2219.1,3452.5,2269.6,3067.2,2232.4z"/><path d="M5416.3,1626.6c-308.3-82.4-547.4-220.6-789.2-465C4300.2,837.3,4108.8,406.8,4108.8,0.3v-154.1h-178c-568.7-2.6-1124-332.2-1403.1-837.1c-478.3-863.6-135.5-1923.9,754.7-2330.5c334.8-154.1,326.9-154.1,2681.3-154.1c1870.8,0,2187,5.3,2365,42.5c396,82.4,701.6,249.8,1004.5,555.4c603.2,605.9,738.8,1533.3,340.2,2298.6C9434.2-122,9017,218.2,8493.5,382.9c-170.1,53.1-255.1,61.1-579.3,61.1h-377.3l-42.5,127.5c-61.1,186-279,499.6-465.1,667C6606.7,1621.2,5974.3,1772.7,5416.3,1626.6z M6109.8,1161.5c350.8-74.4,688.3-318.9,850.4-616.5c39.9-77.1,111.6-260.4,154.1-411.9c45.2-151.5,85-276.4,87.7-281.7c5.3-2.7,124.9,18.6,271.1,50.5c640.4,135.5,1110.8,18.6,1501.4-372c462.4-462.4,563.4-1158.6,255.1-1740.6c-178-340.2-592.6-656.4-956.6-730.8c-95.7-21.3-829.1-29.2-2373-23.9l-2232.1,8l-199.3,98.3c-247.1,122.2-446.4,324.2-560.7,568.7c-114.3,244.5-132.9,582-50.5,829.1c143.5,422.5,454.4,701.5,876.9,791.9c148.8,29.2,247.1,31.9,486.3,10.6c164.7-13.3,321.5-26.6,348.1-26.6c42.5,0,45.2,34.6,42.5,406.6c-2.7,247.2,8,449.1,29.2,523.5c124.9,462.4,499.6,815.8,967.3,916.8C5820.2,1209.4,5891.9,1209.4,6109.8,1161.5z"/><path d="M128.2,672.6c-23.9-13.3-31.9-69.1-26.6-178l8-156.8l542.1-8c377.3-5.3,552.7,2.7,576.7,23.9c21.3,18.6,37.2,82.4,37.2,159.4c0,101-10.6,135.5-50.5,156.8C1153.9,701.8,178.6,707.1,128.2,672.6z"/><path d="M1308-1214.1l-395.9-398.6l71.7-93c138.2-183.4,164.8-172.7,566,225.9c196.6,196.6,369.4,377.3,382.7,401.3c18.6,37.2,2.7,69.1-71.8,154.1c-53.1,58.5-109,106.3-127.5,106.3C1717.2-818.2,1525.9-996.2,1308-1214.1z"/></g></g>
</svg>